<?xml version="1.0" standalone="no"?>
<!DOCTYPE svg PUBLIC "-//W3C//DTD SVG 20010904//EN"
 "http://www.w3.org/TR/2001/REC-SVG-20010904/DTD/svg10.dtd">
<svg version="1.0" xmlns="http://www.w3.org/2000/svg"
 width="512.000000pt" height="512.000000pt" viewBox="0 0 512.000000 512.000000"
 preserveAspectRatio="xMidYMid meet">
<metadata>
Created by potrace 1.14, written by Peter Selinger 2001-2017
</metadata>
<g transform="translate(0.000000,512.000000) scale(0.100000,-0.100000)"
fill="#000000" stroke="none">
<path d="M2404 3877 c-138 -94 -993 -723 -1016 -748 l-28 -29 0 -689 c0 -678
0 -689 20 -714 12 -15 38 -31 58 -37 20 -5 137 -10 258 -10 l222 0 6 -33 c14
-73 76 -179 144 -246 114 -112 242 -161 418 -161 160 0 301 45 427 137 l47 35
0 133 0 134 290 3 290 3 32 33 33 32 0 690 0 690 -35 34 c-19 19 -264 201
-544 405 -567 414 -536 397 -622 338z m531 -536 l450 -328 3 -572 2 -571 -460
0 -461 0 3 -107 3 -108 143 -3 142 -3 0 -89 0 -90 -32 -20 c-56 -35 -155 -60
-232 -60 -216 0 -366 143 -383 365 -13 173 71 331 215 402 50 25 68 28 152 28
106 0 167 -16 244 -65 26 -17 55 -30 65 -30 20 0 111 103 111 126 0 36 -130
110 -241 138 -82 20 -254 21 -329 1 -154 -41 -299 -158 -365 -296 -19 -40 -41
-100 -47 -131 l-12 -58 -168 0 -168 0 0 568 0 568 453 331 c248 183 454 332
457 332 3 1 208 -147 455 -328z"/>
<path d="M2317 3444 c-4 -4 -7 -38 -7 -76 l0 -68 75 0 76 0 -3 73 -3 72 -65 3
c-36 2 -69 0 -73 -4z"/>
<path d="M2510 3375 l0 -75 70 0 70 0 0 75 0 75 -70 0 -70 0 0 -75z"/>
<path d="M2317 3254 c-4 -4 -7 -38 -7 -76 l0 -68 75 0 76 0 -3 73 -3 72 -65 3
c-36 2 -69 0 -73 -4z"/>
<path d="M2510 3185 l0 -75 70 0 70 0 0 75 0 75 -70 0 -70 0 0 -75z"/>
<path d="M2445 2891 c-54 -23 -77 -88 -47 -136 l18 -30 -37 -16 c-26 -12 -42
-29 -55 -58 -15 -34 -23 -41 -46 -41 -15 0 -28 -3 -28 -7 0 -5 15 -44 33 -88
l32 -80 161 -3 c121 -2 164 1 172 10 13 17 62 138 62 155 0 8 -11 13 -28 13
-23 0 -30 6 -41 35 -14 39 -54 75 -83 75 -19 0 -19 1 1 26 60 76 -24 181 -114
145z m68 -22 c24 -11 47 -47 47 -73 0 -7 -9 -25 -21 -40 -15 -19 -30 -26 -55
-26 -85 0 -104 114 -24 143 23 8 27 8 53 -4z m68 -179 c16 -9 49 -58 49 -75 0
-3 -65 -5 -145 -5 -136 0 -145 1 -145 19 0 11 14 31 31 45 27 23 39 26 110 26
44 0 89 -5 100 -10z m99 -107 c0 -4 -10 -33 -22 -65 l-23 -58 -153 2 -154 3
-24 59 c-13 33 -24 61 -24 63 0 2 90 3 200 3 110 0 200 -3 200 -7z"/>
<path d="M2434 2534 c3 -9 6 -20 6 -25 0 -16 77 -10 84 7 11 30 6 34 -45 34
-43 0 -50 -3 -45 -16z m59 -11 c-7 -2 -19 -2 -25 0 -7 3 -2 5 12 5 14 0 19 -2
13 -5z"/>
</g>
</svg>
